#!OML:ASF X:\für Bonn\!DataBase\2005_08_12_Daniel\c3d\Daniel.ASF
:FULLY-SPECIFIED
:DEGREES
31
root 12.2849 16.5542 0.204969 149.001 -106.512 -153.798
lowerback 6.04992 -8.45445 -10.1847
upperback 2.55505 -11.9821 -4.21381
thorax 0.466511 -6.11147 1.70881
lowerneck 4.27794 5.59392 -0.658171
upperneck 9.2302 7.32429 -1.84642
head 2.22828 3.47226 -0.423855
rclavicle 7.43703e-014 1.59028e-014
rhumerus -55.9333 -15.0212 -78.0034
rradius 17.8981
rwrist 27.0892
rhand -11.3 12.372
rfingers 7.12502
rthumb 14.7315 -17.0845
lclavicle 7.43703e-014 1.59028e-014
lhumerus -24.2368 15.2373 81.3235
lradius 51.9552
lwrist 2.96785
lhand -19.7743 -10.8517
lfingers 7.12502
lthumb 6.5577 19.0267
rfemur -37.285 8.39486 2.18877
rtibia 38.3661
rfoot -23.8356 -16.0134
rtoes -9.64101
lfemur 14.3085 -11.9581 -32.7672
ltibia 29.9882
lfoot -37.0679 0.085842
ltoes -10.4939
32
root 12.145 16.5184 0.195134 148.665 -106.69 -153.308
lowerback 5.96378 -8.59509 -10.2323
upperback 2.43333 -12.1687 -4.21644
thorax 0.414129 -6.19804 1.72782
lowerneck 4.11845 5.68111 -0.596458
upperneck 9.22885 7.45739 -1.98378
head 2.26571 3.53757 -0.470806
rclavicle -3.62782e-015 1.19271e-014
rhumerus -56.1684 -15.3677 -77.3879
rradius 17.5274
rwrist 27.7957
rhand -11.3467 12.4522
rfingers 7.12502
rthumb 14.6865 -17.0076
lclavicle -3.62782e-015 1.19271e-014
lhumerus -24.246 14.7276 81.5307
lradius 52.5066
lwrist 3.07052
lhand -19.773 -10.4822
lfingers 7.12502
lthumb 6.55898 19.3963
rfemur -37.6221 9.0532 1.63368
rtibia 38.1287
rfoot -24.2537 -16.6065
rtoes -8.29882
lfemur 14.8829 -11.889 -32.8086
ltibia 29.6161
lfoot -37.1452 -0.185954
ltoes -10.6513
33
root 12.0045 16.482 0.185132 148.441 -106.861 -152.919
lowerback 5.86889 -8.73624 -10.2195
upperback 2.31042 -12.3523 -4.23307
thorax 0.349347 -6.28219 1.70179
lowerneck 3.95353 5.75224 -0.487671
upperneck 9.22558 7.57073 -2.12611
head 2.30588 3.59456 -0.526899
rclavicle -1.07381e-013 0
rhumerus -56.402 -15.8226 -76.6484
rradius 17.1451
rwrist 28.6438
rhand -11.2307 12.523
rfingers 7.12502
rthumb 14.7983 -16.9287
lclavicle -1.07381e-013 0
lhumerus -24.2789 14.1892 81.7062
lradius 52.9658
lwrist 3.15486
lhand -19.7926 -10.1715
lfingers 7.12502
lthumb 6.54002 19.7075
rfemur -37.9372 9.22803 1.30791
rtibia 37.9886
rfoot -24.1685 -16.8466
rtoes -7.8049
lfemur 15.3893 -11.8075 -32.7979
ltibia 29.3292
lfoot -37.2467 -0.479194
ltoes -10.7989
34
root 11.8624 16.4461 0.174736 148.294 -107.026 -152.624
lowerback 5.78917 -8.87924 -10.1882
upperback 2.18497 -12.5395 -4.2422
thorax 0.271473 -6.36738 1.67707
lowerneck 3.77987 5.82678 -0.311627
upperneck 9.25294 7.69306 -2.31928
head 2.36375 3.656 -0.609035
rclavicle -6.63444e-015 1.90833e-014
rhumerus -56.6588 -16.2808 -75.8372
rradius 16.7835
rwrist 29.4928
rhand -11.0071 12.6053
rfingers 7.12502
rthumb 15.0136 -16.8304
lclavicle -6.63444e-015 1.90833e-014
lhumerus -24.3379 13.742 81.8645
lradius 53.2953
lwrist 3.1366
lhand -19.7862 -10.0166
lfingers 7.12502
lthumb 6.54626 19.8623
rfemur -38.1848 8.9395 1.23574
rtibia 37.972
rfoot -23.5325 -16.7457
rtoes -8.06606
lfemur 15.8757 -11.7379 -32.7566
ltibia 29.1189
lfoot -37.4114 -0.782754
ltoes -10.9969
35
root 11.7195 16.4111 0.163691 148.215 -107.177 -152.404
lowerback 5.7204 -9.03042 -10.1368
upperback 2.05745 -12.7375 -4.23672
thorax 0.185242 -6.45748 1.65911
lowerneck 3.60083 5.91167 -0.159967
upperneck 9.28394 7.82773 -2.50072
head 2.42314 3.72267 -0.683173
rclavicle 3.15384e-014 1.43125e-014
rhumerus -56.9163 -16.863 -74.818
rradius 16.4027
rwrist 30.5406
rhand -10.5942 12.6675
rfingers 7.12502
rthumb 15.4114 -16.7381
lclavicle 3.15384e-014 1.43125e-014
lhumerus -24.3875 13.3093 82.0013
lradius 53.4695
lwrist 3.15294
lhand -19.8437 -10.0226
lfingers 7.12502
lthumb 6.49067 19.8579
rfemur -38.3985 8.19323 1.41488
rtibia 38.0983
rfoot -22.2878 -16.3083
rtoes -8.73346
lfemur 16.321 -11.6757 -32.6831
ltibia 28.9811
lfoot -37.6042 -1.07675
ltoes -11.1589
36
root 11.5748 16.3789 0.151896 148.262 -107.316 -152.318
lowerback 5.64666 -9.17922 -10.0373
upperback 1.92696 -12.9292 -4.22534
thorax 0.0886499 -6.54372 1.62326
lowerneck 3.47346 5.98993 -0.0113678
upperneck 9.28243 7.9509 -2.67269
head 2.46257 3.78455 -0.756035
rclavicle 1.04797e-013 3.18055e-015
rhumerus -57.234 -17.5643 -73.6222
rradius 16.0448
rwrist 31.7193
rhand -10.0499 12.7471
rfingers 7.12502
rthumb 15.9356 -16.6173
lclavicle 1.04797e-013 3.18055e-015
lhumerus -24.4174 12.9534 82.1375
lradius 53.4326
lwrist 3.06531
lhand -19.8486 -10.297
lfingers 7.12502
lthumb 6.48594 19.5837
rfemur -38.5982 7.09391 1.79145
rtibia 38.3673
rfoot -20.466 -15.4929
rtoes -8.9557
lfemur 16.7172 -11.6157 -32.5542
ltibia 28.9139
lfoot -37.826 -1.38871
ltoes -11.3269
37
root 11.4276 16.3487 0.138928 148.475 -107.469 -152.406
lowerback 5.55907 -9.3443 -9.91427
upperback 1.80671 -13.1377 -4.19636
thorax 0.0105655 -6.63937 1.58946
lowerneck 3.33138 6.06571 0.172265
upperneck 9.26668 8.07462 -2.89054
head 2.5045 3.84696 -0.84888
rclavicle 8.72789e-014 2.3059e-014
rhumerus -57.5622 -18.4319 -72.1899
rradius 15.6615
rwrist 33.0972
rhand -9.38861 12.8025
rfingers 7.12502
rthumb 16.5723 -16.5099
lclavicle 8.72789e-014 2.3059e-014
lhumerus -24.5273 12.6297 82.2576
lradius 53.356
lwrist 2.91093
lhand -19.853 -10.7261
lfingers 7.12502
lthumb 6.48169 19.1547
rfemur -38.796 5.768 2.29452
rtibia 38.7751
rfoot -18.3799 -14.3385
rtoes -8.84133
lfemur 17.0735 -11.5648 -32.3527
ltibia 28.907
lfoot -38.016 -1.75131
ltoes -11.5631
38
root 11.2773 16.3208 0.123619 148.838 -107.632 -152.651
lowerback 5.4473 -9.51429 -9.76912
upperback 1.69277 -13.3479 -4.16627
thorax -0.0527094 -6.73677 1.54072
lowerneck 3.24942 6.13572 0.408823
upperneck 9.23786 8.1896 -3.11631
head 2.53501 3.907 -0.955341
rclavicle 1.23029e-013 -1.78906e-014
rhumerus -57.8613 -19.239 -70.8254
rradius 15.2871
rwrist 34.3451
rhand -8.71348 12.7673
rfingers 7.12502
rthumb 17.2222 -16.4895
lclavicle 1.23029e-013 -1.78906e-014
lhumerus -24.7403 12.3346 82.355
lradius 53.2609
lwrist 2.70422
lhand -19.784 -11.3028
lfingers 7.12502
lthumb 6.54834 18.576
rfemur -39.0154 4.46638 2.81574
rtibia 39.3144
rfoot -16.3477 -13.0603
rtoes -8.46054
lfemur 17.3993 -11.5233 -32.0825
ltibia 28.9516
lfoot -38.1751 -2.11456
ltoes -11.9503
39
root 11.1247 16.2937 0.107455 149.367 -107.791 -153.069
lowerback 5.31628 -9.69931 -9.57733
upperback 1.58214 -13.5721 -4.11735
thorax -0.107317 -6.84155 1.48383
lowerneck 3.20601 6.21441 0.590019
upperneck 9.15519 8.31194 -3.31273
head 2.53737 3.97109 -1.04532
rclavicle -4.30493e-015 -2.34566e-014
rhumerus -58.16 -20.0654 -69.3757
rradius 14.9328
rwrist 35.6506
rhand -8.00963 12.7204
rfingers 7.12502
rthumb 17.8996 -16.4759
lclavicle -4.30493e-015 -2.34566e-014
lhumerus -25.0067 12.0991 82.4547
lradius 53.073
lwrist 2.36973
lhand -19.6769 -11.9171
lfingers 7.12502
lthumb 6.65169 17.9585
rfemur -39.2644 3.1927 3.36888
rtibia 39.98
rfoot -14.2531 -11.7699
rtoes -7.55372
lfemur 17.7083 -11.4599 -31.7157
ltibia 29.0505
lfoot -38.2814 -2.53612
ltoes -12.4641
40
root 10.9711 16.2667 0.0906077 149.953 -107.935 -153.553
lowerback 5.17894 -9.88794 -9.35953
upperback 1.47045 -13.7992 -4.05973
thorax -0.164117 -6.9478 1.42188
lowerneck 3.22449 6.2923 0.7902
upperneck 9.03186 8.43383 -3.55211
head 2.51914 4.03565 -1.15479
rclavicle -5.69021e-014 -1.66979e-014
rhumerus -58.497 -21.0014 -67.7446
rradius 14.5471
rwrist 37.2115
rhand -7.43472 12.6671
rfingers 7.12502
rthumb 18.4527 -16.4777
lclavicle -5.69021e-014 -1.66979e-014
lhumerus -25.3315 11.918 82.5375
lradius 52.8479
lwrist 1.97899
lhand -19.4952 -12.4691
lfingers 7.12502
lthumb 6.82716 17.4009
rfemur -39.5977 1.94582 3.94259
rtibia 40.8523
rfoot -12.3178 -10.4511
rtoes -7.51879
lfemur 17.932 -11.4113 -31.3146
ltibia 29.3316
lfoot -38.3538 -2.98306
ltoes -12.7703
41
root 10.8181 16.2376 0.073111 150.599 -108.019 -154.121
lowerback 5.07504 -10.0587 -9.09468
upperback 1.35637 -14.0043 -3.98333
thorax -0.250984 -7.04199 1.36319
lowerneck 3.2222 6.36786 0.980455
upperneck 8.93552 8.55211 -3.77947
head 2.51308 4.09758 -1.25807
rclavicle 8.40017e-014 5.1684e-015
rhumerus -58.8688 -22.0815 -65.914
rradius 14.1455
rwrist 39.0036
rhand -6.9844 12.5623
rfingers 7.12502
rthumb 18.8858 -16.5409
lclavicle 8.40017e-014 5.1684e-015
lhumerus -25.7024 11.7194 82.6181
lradius 52.5577
lwrist 1.46326
lhand -19.3431 -12.8454
lfingers 7.12502
lthumb 6.97395 17.0197
rfemur -39.9717 0.698777 4.58627
rtibia 41.8367
rfoot -10.5032 -9.13428
rtoes -6.71156
lfemur 18.1218 -11.3369 -30.8512
ltibia 29.6955
lfoot -38.3162 -3.42829
ltoes -12.9243
